<svg width="17" height="17" viewBox="0 0 17 17" fill="none" xmlns="http://www.w3.org/2000/svg">
<path d="M10.7812 4.50575H10.7908" stroke="white" stroke-width="1.5" stroke-linecap="round" stroke-linejoin="round"/>
<path d="M12.5751 0.91954H3.60958C2.12412 0.91954 0.919922 2.12374 0.919922 3.6092V12.5747C0.919922 14.0602 2.12412 15.2644 3.60958 15.2644H12.5751C14.0605 15.2644 15.2647 14.0602 15.2647 12.5747V3.6092C15.2647 2.12374 14.0605 0.91954 12.5751 0.91954Z" stroke="white" stroke-width="1.5" stroke-linecap="round" stroke-linejoin="round"/>
<path d="M0.919922 10.7816L4.50613 7.19541C4.91501 6.80197 5.37882 6.59483 5.85096 6.59483C6.32309 6.59483 6.78691 6.80197 7.19578 7.19541L11.6785 11.6782" stroke="white" stroke-width="1.5" stroke-linecap="round" stroke-linejoin="round"/>
<path d="M9.88477 9.88505L10.7813 8.9885C11.1902 8.59506 11.654 8.38792 12.1261 8.38792C12.5983 8.38792 13.0621 8.59506 13.471 8.9885L15.2641 10.7816" stroke="white" stroke-width="1.5" stroke-linecap="round" stroke-linejoin="round"/>
</svg>
