<svg width="28" height="28" viewBox="0 0 28 28" fill="none" xmlns="http://www.w3.org/2000/svg">
<path d="M10.5753 8.00079C10.8036 8.00061 11.0303 8.03786 11.2465 8.11107L11.5734 8.22135C13.8264 8.97624 15.9167 10.1485 17.7349 11.6768L18.0077 11.8931C18.315 12.1506 18.562 12.4723 18.7315 12.8354C18.901 13.1985 18.9888 13.5943 18.9888 13.9949C18.9888 14.3955 18.901 14.7913 18.7315 15.1544C18.562 15.5175 18.315 15.8392 18.0077 16.0967L17.7349 16.3259C15.9164 17.8549 13.8263 19.0286 11.5734 19.7857L11.2573 19.8939C11.0411 19.9671 10.8144 20.0043 10.5861 20.0041C10.1004 20.0038 9.62964 19.8363 9.25307 19.5299C8.87649 19.2235 8.6171 18.7969 8.51857 18.3218L8.41898 17.8461C7.89286 15.3121 7.89286 12.6972 8.41898 10.1632L8.51857 9.68744C8.61585 9.21341 8.87327 8.78716 9.2477 8.48011C9.62214 8.17305 10.0908 8.00383 10.5753 8.00079ZM10.5753 0C8.24779 0.000642902 5.99155 0.802148 4.18636 2.2696C2.38117 3.73706 1.13725 5.78087 0.663985 8.05701L0.564395 8.53273C-0.188132 12.1368 -0.188132 15.8573 0.564395 19.4614L0.663985 19.9371C0.953848 21.3366 1.53744 22.6588 2.37627 23.8165C3.2151 24.9743 4.29013 25.9413 5.53045 26.6538C6.77078 27.3663 8.14823 27.808 9.57199 27.95C10.9957 28.0919 12.4335 27.9308 13.7903 27.4773L14.1172 27.367C17.3236 26.2974 20.2985 24.6319 22.8854 22.4584L23.1647 22.2292C24.367 21.2205 25.3337 19.9611 25.9969 18.5395C26.6602 17.118 27.0038 15.5686 27.0038 14.0003C27.0038 12.432 26.6602 10.8826 25.9969 9.46107C25.3337 8.0395 24.367 6.78014 23.1647 5.77138L22.8898 5.54217C20.3029 3.36867 17.3279 1.70323 14.1216 0.633576L13.7903 0.523295C12.7538 0.177189 11.6682 0.00048357 10.5753 0V0Z" fill="#00BBA4"/>
</svg>
