<svg width="18" height="14" viewBox="0 0 18 14" fill="none" xmlns="http://www.w3.org/2000/svg">
<path d="M9 9.72728C10.3807 9.72728 11.5 8.50624 11.5 7.00001C11.5 5.49378 10.3807 4.27274 9 4.27274C7.61929 4.27274 6.5 5.49378 6.5 7.00001C6.5 8.50624 7.61929 9.72728 9 9.72728Z" stroke="#4F4F4F" stroke-width="1.5" stroke-linecap="round" stroke-linejoin="round"/>
<path d="M14.8333 1.54546H3.16667C2.24619 1.54546 1.5 2.35948 1.5 3.36364V10.6364C1.5 11.6405 2.24619 12.4545 3.16667 12.4545H14.8333C15.7538 12.4545 16.5 11.6405 16.5 10.6364V3.36364C16.5 2.35948 15.7538 1.54546 14.8333 1.54546Z" stroke="#4F4F4F" stroke-width="1.5" stroke-linecap="round" stroke-linejoin="round"/>
<path d="M14 7H14.0083" stroke="#4F4F4F" stroke-width="1.5" stroke-linecap="round" stroke-linejoin="round"/>
<path d="M4 7H4.00833" stroke="#4F4F4F" stroke-width="1.5" stroke-linecap="round" stroke-linejoin="round"/>
</svg>
