<svg width="55" height="24" viewBox="0 0 55 24" fill="none" xmlns="http://www.w3.org/2000/svg">
<path d="M15.424 23.7324H12.383L3.52758 12.4685V23.7324H0V6.45945H3.04102L11.8965 17.7234V6.45945H15.424V23.7324Z" fill="#1A1D1C"/>
<path d="M28.7869 22.1754C27.538 23.3918 26.0297 24 24.2618 24C22.494 24 20.9856 23.3918 19.7368 22.1754C18.4879 20.9428 17.8635 19.4345 17.8635 17.6504C17.8635 15.8826 18.4879 14.3823 19.7368 13.1497C20.9856 11.9171 22.494 11.3008 24.2618 11.3008C26.0297 11.3008 27.538 11.9171 28.7869 13.1497C30.0357 14.3823 30.6601 15.8826 30.6601 17.6504C30.6601 19.4345 30.0357 20.9428 28.7869 22.1754ZM24.2618 20.886C25.1214 20.886 25.835 20.586 26.4027 19.9859C26.9866 19.3696 27.2785 18.5911 27.2785 17.6504C27.2785 16.7097 26.9866 15.9393 26.4027 15.3392C25.835 14.7229 25.1214 14.4148 24.2618 14.4148C23.386 14.4148 22.6562 14.7229 22.0723 15.3392C21.5046 15.9393 21.2208 16.7097 21.2208 17.6504C21.2208 18.5911 21.5046 19.3696 22.0723 19.9859C22.6562 20.586 23.386 20.886 24.2618 20.886Z" fill="#1A1D1C"/>
<path d="M39.9242 24C39.1457 24 38.4402 23.8379 37.8077 23.5135C37.1751 23.1891 36.7048 22.808 36.3966 22.3701V23.7324H33.0637V5.48633H36.3966V12.9307C36.7048 12.4928 37.1751 12.1117 37.8077 11.7873C38.4402 11.4629 39.1457 11.3008 39.9242 11.3008C41.5299 11.3008 42.8841 11.9252 43.987 13.174C45.0899 14.4229 45.6413 15.915 45.6413 17.6504C45.6413 19.3858 45.0899 20.8779 43.987 22.1268C42.8841 23.3756 41.5299 24 39.9242 24ZM36.9562 20.0346C37.5238 20.6509 38.2699 20.959 39.1944 20.959C40.1188 20.959 40.8568 20.6509 41.4082 20.0346C41.9759 19.4182 42.2597 18.6235 42.2597 17.6504C42.2597 16.6773 41.9759 15.8826 41.4082 15.2662C40.8568 14.6499 40.1188 14.3418 39.1944 14.3418C38.2699 14.3418 37.5238 14.6499 36.9562 15.2662C36.4047 15.8826 36.129 16.6773 36.129 17.6504C36.129 18.6235 36.4047 19.4182 36.9562 20.0346Z" fill="#1A1D1C"/>
<path d="M48.0787 23.7324V11.5684H51.4116V23.7324H48.0787Z" fill="#1A1D1C"/>
<path d="M49.1425 3.27838C50.3002 2.96816 51.3596 4.02757 51.0494 5.18531L50.8095 6.08073C50.4993 7.23848 49.0521 7.62625 48.2045 6.77872L47.5491 6.12323C46.7015 5.2757 47.0893 3.82852 48.247 3.5183L49.1425 3.27838Z" fill="#00BBA4"/>
</svg>
