<svg width="17" height="20" viewBox="0 0 17 20" fill="none" xmlns="http://www.w3.org/2000/svg">
<path d="M13.3567 6.6665C13.3567 5.34042 12.845 4.06865 11.9341 3.13097C11.0232 2.19329 9.78778 1.6665 8.49958 1.6665C7.21139 1.6665 5.97595 2.19329 5.06506 3.13097C4.15417 4.06865 3.64244 5.34042 3.64244 6.6665C3.64244 12.4998 1.21387 14.1665 1.21387 14.1665H15.7853C15.7853 14.1665 13.3567 12.4998 13.3567 6.6665Z" stroke="#828282" stroke-width="1.5" stroke-linecap="round" stroke-linejoin="round"/>
<path d="M9.90056 17.5C9.75824 17.7526 9.55396 17.9622 9.30817 18.1079C9.06239 18.2537 8.78373 18.3304 8.50009 18.3304C8.21645 18.3304 7.93778 18.2537 7.692 18.1079C7.44621 17.9622 7.24193 17.7526 7.09961 17.5" stroke="#828282" stroke-width="1.5" stroke-linecap="round" stroke-linejoin="round"/>
</svg>
