<svg width="18" height="18" viewBox="0 0 18 18" fill="none" xmlns="http://www.w3.org/2000/svg">
<path d="M9 11C10.1046 11 11 10.1046 11 9C11 7.89543 10.1046 7 9 7C7.89543 7 7 7.89543 7 9C7 10.1046 7.89543 11 9 11Z" stroke="#4F4F4F" stroke-width="1.5" stroke-linecap="round" stroke-linejoin="round"/>
<path d="M13.9337 11C13.8449 11.2011 13.8184 11.4241 13.8577 11.6404C13.8969 11.8566 14 12.0562 14.1537 12.2133L14.1937 12.2533C14.3176 12.3772 14.416 12.5242 14.4831 12.6861C14.5502 12.8479 14.5847 13.0214 14.5847 13.1967C14.5847 13.3719 14.5502 13.5454 14.4831 13.7072C14.416 13.8691 14.3176 14.0162 14.1937 14.14C14.0698 14.264 13.9228 14.3623 13.7609 14.4294C13.599 14.4965 13.4255 14.531 13.2503 14.531C13.0751 14.531 12.9016 14.4965 12.7397 14.4294C12.5779 14.3623 12.4308 14.264 12.307 14.14L12.267 14.1C12.1099 13.9463 11.9103 13.8432 11.6941 13.804C11.4778 13.7648 11.2547 13.7912 11.0537 13.88C10.8565 13.9645 10.6883 14.1048 10.5699 14.2837C10.4514 14.4625 10.3878 14.6721 10.387 14.8867V15C10.387 15.3536 10.2465 15.6927 9.99647 15.9428C9.74642 16.1928 9.40728 16.3333 9.05366 16.3333C8.70004 16.3333 8.3609 16.1928 8.11085 15.9428C7.8608 15.6927 7.72033 15.3536 7.72033 15V14.94C7.71516 14.7193 7.64374 14.5053 7.51533 14.3258C7.38693 14.1463 7.20748 14.0095 7.00033 13.9333C6.79925 13.8446 6.5762 13.8181 6.35993 13.8573C6.14367 13.8965 5.94411 13.9996 5.78699 14.1533L5.74699 14.1933C5.62316 14.3173 5.47611 14.4156 5.31425 14.4827C5.15238 14.5498 4.97888 14.5844 4.80366 14.5844C4.62844 14.5844 4.45494 14.5498 4.29307 14.4827C4.13121 14.4156 3.98416 14.3173 3.86033 14.1933C3.73636 14.0695 3.63801 13.9224 3.57091 13.7606C3.50381 13.5987 3.46928 13.4252 3.46928 13.25C3.46928 13.0748 3.50381 12.9013 3.57091 12.7394C3.63801 12.5775 3.73636 12.4305 3.86033 12.3067L3.90033 12.2667C4.05402 12.1095 4.15712 11.91 4.19633 11.6937C4.23554 11.4775 4.20907 11.2544 4.12033 11.0533C4.03582 10.8561 3.8955 10.688 3.71664 10.5695C3.53778 10.4511 3.32818 10.3875 3.11366 10.3867H3.00033C2.6467 10.3867 2.30756 10.2462 2.05752 9.99613C1.80747 9.74608 1.66699 9.40694 1.66699 9.05332C1.66699 8.6997 1.80747 8.36056 2.05752 8.11051C2.30756 7.86047 2.6467 7.71999 3.00033 7.71999H3.06033C3.28099 7.71483 3.495 7.6434 3.67452 7.515C3.85405 7.38659 3.9908 7.20715 4.06699 6.99999C4.15574 6.79891 4.18221 6.57586 4.143 6.3596C4.10378 6.14333 4.00068 5.94378 3.84699 5.78666L3.80699 5.74666C3.68302 5.62283 3.58468 5.47577 3.51758 5.31391C3.45048 5.15205 3.41594 4.97854 3.41594 4.80332C3.41594 4.6281 3.45048 4.4546 3.51758 4.29274C3.58468 4.13087 3.68302 3.98382 3.80699 3.85999C3.93082 3.73602 4.07787 3.63768 4.23974 3.57058C4.4016 3.50348 4.5751 3.46894 4.75033 3.46894C4.92555 3.46894 5.09905 3.50348 5.26091 3.57058C5.42278 3.63768 5.56983 3.73602 5.69366 3.85999L5.73366 3.89999C5.89078 4.05368 6.09034 4.15678 6.3066 4.19599C6.52286 4.23521 6.74591 4.20873 6.94699 4.11999H7.00033C7.1975 4.03548 7.36567 3.89516 7.48412 3.7163C7.60257 3.53744 7.66614 3.32785 7.66699 3.11332V2.99999C7.66699 2.64637 7.80747 2.30723 8.05752 2.05718C8.30756 1.80713 8.6467 1.66666 9.00033 1.66666C9.35395 1.66666 9.69309 1.80713 9.94313 2.05718C10.1932 2.30723 10.3337 2.64637 10.3337 2.99999V3.05999C10.3345 3.27451 10.3981 3.48411 10.5165 3.66297C10.635 3.84183 10.8031 3.98215 11.0003 4.06666C11.2014 4.1554 11.4245 4.18187 11.6407 4.14266C11.857 4.10345 12.0565 4.00035 12.2137 3.84666L12.2537 3.80666C12.3775 3.68269 12.5245 3.58434 12.6864 3.51724C12.8483 3.45014 13.0218 3.41561 13.197 3.41561C13.3722 3.41561 13.5457 3.45014 13.7076 3.51724C13.8694 3.58434 14.0165 3.68269 14.1403 3.80666C14.2643 3.93049 14.3626 4.07754 14.4297 4.2394C14.4968 4.40127 14.5314 4.57477 14.5314 4.74999C14.5314 4.92521 14.4968 5.09871 14.4297 5.26058C14.3626 5.42244 14.2643 5.56949 14.1403 5.69332L14.1003 5.73332C13.9466 5.89044 13.8435 6.09 13.8043 6.30626C13.7651 6.52253 13.7916 6.74558 13.8803 6.94666V6.99999C13.9648 7.19717 14.1052 7.36533 14.284 7.48378C14.4629 7.60224 14.6725 7.6658 14.887 7.66666H15.0003C15.3539 7.66666 15.6931 7.80713 15.9431 8.05718C16.1932 8.30723 16.3337 8.64637 16.3337 8.99999C16.3337 9.35361 16.1932 9.69275 15.9431 9.9428C15.6931 10.1928 15.3539 10.3333 15.0003 10.3333H14.9403C14.7258 10.3342 14.5162 10.3977 14.3373 10.5162C14.1585 10.6346 14.0182 10.8028 13.9337 11V11Z" stroke="#4F4F4F" stroke-width="1.5" stroke-linecap="round" stroke-linejoin="round"/>
</svg>
