<svg width="18" height="18" viewBox="0 0 18 18" fill="none" xmlns="http://www.w3.org/2000/svg">
<path d="M9 11C10.1046 11 11 10.1046 11 9C11 7.89543 10.1046 7 9 7C7.89543 7 7 7.89543 7 9C7 10.1046 7.89543 11 9 11Z" stroke="white" stroke-width="1.5" stroke-linecap="round" stroke-linejoin="round"/>
<path d="M13.9327 11C13.8439 11.201 13.8175 11.4241 13.8567 11.6404C13.8959 11.8566 13.999 12.0562 14.1527 12.2133L14.1927 12.2533C14.3167 12.3771 14.415 12.5242 14.4821 12.686C14.5492 12.8479 14.5837 13.0214 14.5837 13.1966C14.5837 13.3718 14.5492 13.5453 14.4821 13.7072C14.415 13.8691 14.3167 14.0161 14.1927 14.14C14.0689 14.2639 13.9218 14.3623 13.7599 14.4294C13.5981 14.4965 13.4246 14.531 13.2493 14.531C13.0741 14.531 12.9006 14.4965 12.7388 14.4294C12.5769 14.3623 12.4298 14.2639 12.306 14.14L12.266 14.1C12.1089 13.9463 11.9093 13.8432 11.6931 13.804C11.4768 13.7647 11.2538 13.7912 11.0527 13.88C10.8555 13.9645 10.6873 14.1048 10.5689 14.2836C10.4504 14.4625 10.3869 14.6721 10.386 14.8866V15C10.386 15.3536 10.2455 15.6927 9.99549 15.9428C9.74544 16.1928 9.4063 16.3333 9.05268 16.3333C8.69906 16.3333 8.35992 16.1928 8.10987 15.9428C7.85982 15.6927 7.71935 15.3536 7.71935 15V14.94C7.71419 14.7193 7.64276 14.5053 7.51436 14.3258C7.38595 14.1462 7.20651 14.0095 6.99935 13.9333C6.79827 13.8445 6.57522 13.8181 6.35896 13.8573C6.14269 13.8965 5.94313 13.9996 5.78602 14.1533L5.74602 14.1933C5.62218 14.3173 5.47513 14.4156 5.31327 14.4827C5.1514 14.5498 4.9779 14.5843 4.80268 14.5843C4.62746 14.5843 4.45396 14.5498 4.2921 14.4827C4.13023 14.4156 3.98318 14.3173 3.85935 14.1933C3.73538 14.0695 3.63703 13.9224 3.56994 13.7605C3.50284 13.5987 3.4683 13.4252 3.4683 13.25C3.4683 13.0747 3.50284 12.9012 3.56994 12.7394C3.63703 12.5775 3.73538 12.4305 3.85935 12.3066L3.89935 12.2666C4.05304 12.1095 4.15614 11.9099 4.19535 11.6937C4.23456 11.4774 4.20809 11.2544 4.11935 11.0533C4.03484 10.8561 3.89452 10.6879 3.71566 10.5695C3.5368 10.451 3.32721 10.3875 3.11268 10.3866H2.99935C2.64573 10.3866 2.30659 10.2461 2.05654 9.9961C1.80649 9.74605 1.66602 9.40691 1.66602 9.05329C1.66602 8.69967 1.80649 8.36053 2.05654 8.11048C2.30659 7.86043 2.64573 7.71996 2.99935 7.71996H3.05935C3.28001 7.7148 3.49402 7.64337 3.67355 7.51497C3.85308 7.38656 3.98983 7.20712 4.06602 6.99996C4.15476 6.79888 4.18123 6.57583 4.14202 6.35957C4.10281 6.1433 3.99971 5.94375 3.84602 5.78663L3.80602 5.74663C3.68205 5.62279 3.5837 5.47574 3.5166 5.31388C3.4495 5.15202 3.41497 4.97851 3.41497 4.80329C3.41497 4.62807 3.4495 4.45457 3.5166 4.29271C3.5837 4.13084 3.68205 3.98379 3.80602 3.85996C3.92985 3.73599 4.0769 3.63765 4.23876 3.57055C4.40063 3.50345 4.57413 3.46891 4.74935 3.46891C4.92457 3.46891 5.09807 3.50345 5.25994 3.57055C5.4218 3.63765 5.56885 3.73599 5.69268 3.85996L5.73268 3.89996C5.8898 4.05365 6.08936 4.15675 6.30562 4.19596C6.52189 4.23517 6.74494 4.2087 6.94602 4.11996H6.99935C7.19653 4.03545 7.36469 3.89513 7.48314 3.71627C7.60159 3.53741 7.66516 3.32782 7.66602 3.11329V2.99996C7.66602 2.64634 7.80649 2.3072 8.05654 2.05715C8.30659 1.8071 8.64573 1.66663 8.99935 1.66663C9.35297 1.66663 9.69211 1.8071 9.94216 2.05715C10.1922 2.3072 10.3327 2.64634 10.3327 2.99996V3.05996C10.3335 3.27448 10.3971 3.48408 10.5156 3.66294C10.634 3.8418 10.8022 3.98212 10.9993 4.06663C11.2004 4.15537 11.4235 4.18184 11.6397 4.14263C11.856 4.10342 12.0556 4.00032 12.2127 3.84663L12.2527 3.80663C12.3765 3.68266 12.5236 3.58431 12.6854 3.51721C12.8473 3.45011 13.0208 3.41558 13.196 3.41558C13.3712 3.41558 13.5447 3.45011 13.7066 3.51721C13.8685 3.58431 14.0155 3.68266 14.1393 3.80663C14.2633 3.93046 14.3617 4.07751 14.4288 4.23937C14.4959 4.40124 14.5304 4.57474 14.5304 4.74996C14.5304 4.92518 14.4959 5.09868 14.4288 5.26055C14.3617 5.42241 14.2633 5.56946 14.1393 5.69329L14.0993 5.73329C13.9457 5.89041 13.8426 6.08997 13.8033 6.30623C13.7641 6.5225 13.7906 6.74555 13.8793 6.94663V6.99996C13.9639 7.19714 14.1042 7.3653 14.283 7.48375C14.4619 7.6022 14.6715 7.66577 14.886 7.66663H14.9993C15.353 7.66663 15.6921 7.8071 15.9422 8.05715C16.1922 8.3072 16.3327 8.64634 16.3327 8.99996C16.3327 9.35358 16.1922 9.69272 15.9422 9.94277C15.6921 10.1928 15.353 10.3333 14.9993 10.3333H14.9393C14.7248 10.3341 14.5152 10.3977 14.3364 10.5162C14.1575 10.6346 14.0172 10.8028 13.9327 11V11Z" stroke="white" stroke-width="1.5" stroke-linecap="round" stroke-linejoin="round"/>
</svg>
